<?xml version="1.0" encoding="iso-8859-1"?>
<!DOCTYPE svg PUBLIC "-//W3C//DTD SVG 1.1//EN" "http://www.w3.org/Graphics/SVG/1.1/DTD/svg11.dtd">
<svg 
 version="1.1" xmlns="http://www.w3.org/2000/svg" xmlns:xlink="http://www.w3.org/1999/xlink" x="0px" y="0px" width="512px"
	 height="512px" viewBox="0 0 512 512" style="enable-background:new 0 0 512 512;" xml:space="preserve"
><g id="afcae5a789ccd549f9c6e2a2f80d7850"><g></g><g fill="#8d8d8d"><path style="display: inline;" d="M511.371,102.577c0.37-7.178-2.091-14.472-7.573-19.953l-74.42-74.421
		c-5.481-5.48-12.775-7.943-19.953-7.576L409.3,0.501l-0.154,0.154c-6.179,0.382-12.255,2.828-16.979,7.547l-21.292,21.292
		L342.415,1.03L213.417,130.027l19.516,19.517l105.931-105.93l10.384,10.383c-1.11,2.691-1.655,5.531-1.834,8.393L34.566,375.23
		L0.5,511.498l136.267-34.066l312.847-312.842c6.175-0.382,12.25-2.828,16.975-7.547l37.21-37.211
		c4.721-4.72,7.166-10.8,7.548-16.975l0.154-0.154L511.371,102.577z M59.264,481.119L31.16,453.018l16.181-64.729l76.65,76.65
		L59.264,481.119z"></path></g></g></svg>